Coordinates
version=1
nRows=22
nColumns=24
inDegrees=yes

Units are S.I. units (second, meters, Newtons, ...)
Angles are in degrees.

endheader
time	pelvis_tilt	pelvis_list	pelvis_rotation	pelvis_tx	pelvis_ty	pelvis_tz	hip_flexion_r	hip_adduction_r	hip_rotation_r	knee_angle_r	ankle_angle_r	subtalar_angle_r	mtp_angle_r	hip_flexion_l	hip_adduction_l	hip_rotation_l	knee_angle_l	ankle_angle_l	subtalar_angle_l	mtp_angle_l	lumbar_extension	lumbar_bending	lumbar_rotation
      1.71233333	      1.59353511	      1.22597007	     -7.48050353	      1.34745966	      1.02322156	      0.30034712	     22.24183703	     -2.97270229	     -4.09051638	    -70.69246579	      0.82066074	    -11.13057630	     -4.24833052	      7.27017816	      2.39454930	     -5.51956080	    -13.51897661	      0.68791032	    -18.04947454	    -14.83575268	     -9.45774427	     -5.04252882	      2.23652425
      1.71650000	      1.71177881	      1.03435159	     -7.15171455	      1.35242813	      1.02428706	      0.29945053	     22.55567540	     -2.85134877	     -4.50404444	    -70.09342861	      1.24375106	    -11.15639686	     -4.23226890	      6.65775252	      2.32603971	     -5.23953155	    -13.15687097	      0.69101296	    -18.01218015	    -14.83356841	     -9.67180440	     -4.70724970	      1.99098406
      1.72066667	      1.83354755	      0.83375089	     -6.82750980	      1.35738308	      1.02533866	      0.29858206	     22.84800809	     -2.72455559	     -4.92247678	    -69.44051605	      1.63953732	    -11.21388710	     -4.23301405	      6.04124385	      2.23828138	     -4.97573849	    -12.79407274	      0.69037986	    -17.97033730	    -14.82669415	     -9.88578147	     -4.36273758	      1.73282358
      1.72483333	      1.92462683	      0.64803281	     -6.48271031	      1.36231334	      1.02627844	      0.29765518	     23.16724809	     -2.63191619	     -5.35904957	    -68.76355073	      2.02657172	    -11.24725517	     -4.24821823	      5.47948485	      2.15953090	     -4.68553848	    -12.46085441	      0.71256359	    -17.92011808	    -14.81487930	    -10.06443332	     -4.02675685	      1.45911180
      1.72900000	      2.02080059	      0.47973965	     -6.17524718	      1.36720684	      1.02717823	      0.29684571	     23.48056010	     -2.54187430	     -5.75188795	    -68.05592419	      2.42906031	    -11.24911332	     -4.27680792	      4.90646569	      2.08725096	     -4.42750116	    -12.11383943	      0.71394882	    -17.89662840	    -14.80122172	    -10.24159560	     -3.72018714	      1.22173968
      1.73316667	      2.10948374	      0.29428102	     -5.86454617	      1.37210872	      1.02804854	      0.29606650	     23.77656060	     -2.43537381	     -6.15168644	    -67.29085709	      2.79713539	    -11.27575222	     -4.31613197	      4.34880568	      1.98250980	     -4.19469958	    -11.77463114	      0.72785401	    -17.82942182	    -14.78187640	    -10.40802510	     -3.39702237	      1.01232214
      1.73733333	      2.18706537	      0.13235680	     -5.56738482	      1.37695577	      1.02883001	      0.29529402	     24.08207897	     -2.35868994	     -6.53292385	    -66.50590078	      3.17567577	    -11.25719942	     -4.36607376	      3.81455342	      1.89835137	     -3.95222807	    -11.46006372	      0.75952061	    -17.77964906	    -14.75990300	    -10.56422216	     -3.09262430	      0.80733335
      1.74150000	      2.29966534	     -0.00808610	     -5.27014160	      1.38179998	      1.02961215	      0.29453296	     24.34404944	     -2.31456153	     -6.91201907	    -65.69278222	      3.54999685	    -11.28731839	     -4.44623909	      3.24158326	      1.83575791	     -3.71049673	    -11.12996387	      0.77822410	    -17.73294448	    -14.72432991	    -10.76176131	     -2.81112620	      0.55943721
      1.74566667	      2.31822938	     -0.15336574	     -5.01754162	      1.38662390	      1.03021713	      0.29390474	     24.69563298	     -2.23262802	     -7.23643290	    -64.83472523	      3.90264839	    -11.19429525	     -4.50955281	      2.77724839	      1.74246045	     -3.52841217	    -10.82446088	      0.81660305	    -17.66754195	    -14.69600549	    -10.83542431	     -2.53098924	      0.43700425
      1.74983333	      2.39619099	     -0.28270098	     -4.73367341	      1.39141512	      1.03086629	      0.29322578	     24.96780343	     -2.19352682	     -7.59272955	    -63.94394880	      4.26975502	    -11.19031914	     -4.61318739	      2.25787255	      1.67154725	     -3.29455679	    -10.51566679	      0.82920254	    -17.61769840	    -14.65367324	    -10.98645451	     -2.27248695	      0.22356535
      1.75400000	      2.33767043	     -0.33864330	     -4.59165807	      1.39619413	      1.03116415	      0.29293972	     25.42966458	     -2.13631853	     -7.76502870	    -63.08667909	      4.64813481	    -11.15915555	     -4.63759870	      1.89280733	      1.63932868	     -3.25217569	    -10.22869811	      0.83254879	    -17.54654747	    -14.64142989	    -10.96274594	     -2.12325755	      0.19329527
      1.75816667	      2.46458319	     -0.50776907	     -4.27013894	      1.40098899	      1.03187048	      0.29216250	     25.58140152	     -2.09535066	     -8.17303039	    -62.06923528	      4.94917996	    -11.06480939	     -4.76426279	      1.32644593	      1.52397518	     -2.98919207	     -9.94003726	      0.92387740	    -17.44689852	    -14.58484537	    -11.16909245	     -1.80492143	     -0.05262205
      1.76233333	      2.42732535	     -0.58210727	     -4.08802897	      1.40575607	      1.03216184	      0.29175217	     25.96549691	     -2.06288448	     -8.40064233	    -61.10274960	      5.25661548	    -10.94108303	     -4.83182352	      0.94707911	      1.47625196	     -2.89228778	     -9.66976770	      0.97841943	    -17.38219886	    -14.55201791	    -11.16024019	     -1.61064988	     -0.10239709
      1.76650000	      2.46534196	     -0.68066507	     -3.84647599	      1.41049922	      1.03257235	      0.29123847	     26.22477091	     -2.03874984	     -8.68901417	    -60.06885536	      5.57943053	    -10.88485357	     -4.96763259	      0.49758491	      1.40783933	     -2.71060224	     -9.41747304	      1.04693443	    -17.28663175	    -14.49032993	    -11.26650075	     -1.39984987	     -0.27302857
      1.77066667	      2.38347471	     -0.69177004	     -3.73155065	      1.41521010	      1.03265247	      0.29106566	     26.66213419	     -2.02246240	     -8.80484220	    -59.07280426	      5.89112167	    -10.81385651	     -4.99758340	      0.17603535	      1.40806554	     -2.68682447	     -9.15735640	      1.08580446	    -17.20168481	    -14.47473096	    -11.20801496	     -1.31414044	     -0.28880752
      1.77483333	      2.36242959	     -0.77167621	     -3.50101107	      1.41992340	      1.03287999	      0.29059337	     26.95921637	     -2.01665826	     -9.07248202	    -57.97039285	      6.12763268	    -10.68866211	     -5.09846391	     -0.19392331	      1.34594872	     -2.53045254	     -8.93458298	      1.23127268	    -17.05351406	    -14.42532043	    -11.24298779	     -1.11417300	     -0.38808107
      1.77900000	      2.29691732	     -0.77172406	     -3.39540114	      1.42467446	      1.03291520	      0.29045678	     27.33441471	     -2.01417280	     -9.17795093	    -56.89682058	      6.43376618	    -10.63396619	     -5.13548581	     -0.52947927	      1.35481838	     -2.52427417	     -8.68593464	      1.27517533	    -16.97166575	    -14.40761700	    -11.19469501	     -1.03693471	     -0.42299529
      1.78316667	      2.30771602	     -0.84012985	     -3.16981131	      1.42936343	      1.03311381	      0.29002552	     27.56260258	     -2.02048296	     -9.43338557	    -55.71857099	      6.64456972	    -10.54836475	     -5.26210429	     -0.93170105	      1.29940608	     -2.37942610	     -8.46337732	      1.42704371	    -16.80423888	    -14.34628867	    -11.26951991	     -0.85720993	     -0.53782925
      1.78733333	      2.23197667	     -0.81167301	     -3.07172037	      1.43407680	      1.03303402	      0.28991563	     27.92383085	     -2.04629340	     -9.51531112	    -54.58533321	      6.90365320	    -10.48635768	     -5.30215741	     -1.24690203	      1.33600291	     -2.37251578	     -8.23455873	      1.49867551	    -16.73168774	    -14.32698964	    -11.20478841	     -0.81021664	     -0.55454100
      1.79150000	      2.23200013	     -0.85735793	     -2.89080103	      1.43880364	      1.03312865	      0.28962599	     28.13293949	     -2.04753056	     -9.71219228	    -53.34186492	      7.09238944	    -10.44320179	     -5.45243015	     -1.63721073	      1.29305312	     -2.30330828	     -8.02120147	      1.67196405	    -16.52407051	    -14.25926328	    -11.25901683	     -0.66424391	     -0.66248321
      1.79566667	      2.11580707	     -0.80942311	     -2.79921116	      1.44348941	      1.03290803	      0.28957097	     28.50498570	     -2.08393624	     -9.77040644	    -52.14431968	      7.30992831	    -10.38712269	     -5.48738937	     -1.90733372	      1.34361076	     -2.29311676	     -7.78758151	      1.74702941	    -16.44792267	    -14.24267548	    -11.16480574	     -0.64881317	     -0.66273518
      1.79983333	      2.01223670	     -0.78342612	     -2.67212240	      1.44821417	      1.03269276	      0.28943151	     28.82752594	     -2.12191710	     -9.87680743	    -50.88656467	      7.50765241	    -10.33954946	     -5.53355050	     -2.17261957	      1.36939734	     -2.26425248	     -7.60014587	      1.89067732	    -16.32234179	    -14.22019639	    -11.08325761	     -0.59736052	     -0.67273613
